  <svg
    width="64"
    height="64"
    viewBox="0 0 64 64"
    xmlns="http://www.w3.org/2000/svg"
  >
    <rect x="28" y="4" width="8" height="56" rx="4" fill="#E0E0E0" />

    <rect x="24" y="16" width="16" height="28" rx="6" fill="#FF3D57" />

    <rect x="20" y="14" width="24" height="4" rx="2" fill="#333333" />

    <rect x="29" y="6" width="6" height="10" rx="3" fill="#222222" />

    <rect x="29" y="44" width="6" height="10" rx="3" fill="#222222" />

    <rect x="26" y="20" width="12" height="16" rx="4" fill="#1976D2" />

    <circle cx="32" cy="18" r="6" fill="#FFCC80" />
    <path d="M26 18a6 6 0 0 1 12 0v1H26z" fill="#1E88E5" />

    <rect x="21" y="20" width="6" height="10" rx="3" fill="#1976D2" />
    <rect x="37" y="20" width="6" height="10" rx="3" fill="#1976D2" />

    <circle cx="23.5" cy="17" r="2" fill="#FFCC80" />
    <circle cx="40.5" cy="17" r="2" fill="#FFCC80" />

    <rect x="22" y="38" width="20" height="12" rx="3" fill="#FFFFFF" />
    <rect
      x="22"
      y="38"
      width="20"
      height="12"
      rx="3"
      fill="none"
      stroke="#BDBDBD"
      stroke-width="1.5"
    />
    <path
      d="M24 42h16"
      stroke="#FF3D57"
      stroke-width="2"
      stroke-linecap="round"
    />
  </svg>